<?xml version="1.0" encoding="utf-8"?>
<!-- Generator: Adobe Illustrator 17.0.0, SVG Export Plug-In . SVG Version: 6.00 Build 0)  -->
<!DOCTYPE svg PUBLIC "-//W3C//DTD SVG 1.1//EN" "http://www.w3.org/Graphics/SVG/1.1/DTD/svg11.dtd">
<svg version="1.1" id="Layer_1" xmlns="http://www.w3.org/2000/svg" xmlns:xlink="http://www.w3.org/1999/xlink" x="0px" y="0px"
	 width="525px" height="239.5px" viewBox="0 0 525 239.5" enable-background="new 0 0 525 239.5" xml:space="preserve">
<circle fill="none" stroke="#F0F0F0" stroke-miterlimit="10" cx="378.229" cy="120.728" r="4.714"/>
<rect x="10.205" y="125.19" fill="none" stroke="#F0F0F0" stroke-width="2" stroke-miterlimit="10" width="100.024" height="6.109"/>
<rect x="282.855" y="50.225" fill="none" stroke="#F0F0F0" stroke-width="2" stroke-linecap="round" stroke-linejoin="round" stroke-miterlimit="10" width="187.768" height="6.109"/>
<rect x="10.205" y="161.074" fill="none" stroke="#F0F0F0" stroke-width="2" stroke-miterlimit="10" width="200.046" height="6.109"/>
<path fill="none" stroke="#F0F0F0" stroke-width="2" stroke-miterlimit="10" d="M444.791,236.956h-7.862
	c-3.669,0-6.29-3.145-6.29-6.29h-0.524V123.741c0-3.669,3.145-6.29,6.29-6.29c3.669,0,6.29,3.145,6.29,6.29v26.207
	c0,0.524,0,0.524,0,0.524l0,0v47.697c0,3.145,2.097,5.241,5.241,5.241c3.145,0,5.241-2.097,5.241-5.241v-47.697
	c0-0.524,0-0.524,0-0.524l0,0c0-3.669,2.621-6.29,6.29-6.29c3.669,0,6.29,3.145,6.29,6.29v13.104c0,0.524,0,0.524,0,0.524
	c0,0.524,0,0.524,0,0.524v34.593c0,3.145,2.097,5.241,5.241,5.241s5.241-2.097,5.241-5.241V164.1c0-0.524,0-0.524,0-0.524
	c0-0.524,0-0.524,0-0.524c0-3.669,3.145-6.29,6.29-6.29c3.669,0,6.29,3.145,6.29,6.29v19.393c0,0.524,0,0.524,0,0.524l0,0v15.2
	c0,3.145,2.097,5.241,5.241,5.241c3.145,0,5.241-2.097,5.241-5.241v-15.2c0-0.524,0-0.524,0-0.524l0,0c0-3.669,2.621-6.29,6.29-6.29
	s6.29,3.145,6.29,6.29v47.697c0,3.669-3.145,6.29-6.29,6.29H494.06L444.791,236.956z"/>
<path fill="none" stroke="#F0F0F0" stroke-width="2" stroke-miterlimit="10" d="M421.204,124.266v20.966
	c-9.959-5.766-16.773-16.248-16.773-28.304c0-17.297,14.152-31.973,31.973-31.973c17.297,0,31.973,14.152,31.973,31.973
	c0,6.29-2.097,12.579-5.241,17.297c-1.048-0.524-2.097-0.524-3.145-0.524c-2.097,0-4.193,0.524-6.29,1.048v-10.483
	c0-9.435-7.862-16.773-16.773-16.773C428.018,107.493,420.156,114.831,421.204,124.266z"/>
<circle fill="none" stroke="#F0F0F0" stroke-width="2" stroke-miterlimit="10" cx="154.194" cy="118.762" r="17.762"/>
<circle fill="none" stroke="#F0F0F0" stroke-width="2" stroke-linecap="round" stroke-linejoin="round" stroke-miterlimit="10" cx="356.194" cy="110.762" r="17.762"/>
<circle fill="none" stroke="#F0F0F0" stroke-width="2" stroke-miterlimit="10" cx="200.194" cy="118.762" r="11.797"/>
<circle fill="none" stroke="#F0F0F0" stroke-width="2" stroke-linecap="round" stroke-linejoin="round" stroke-miterlimit="10" cx="294.194" cy="110.762" r="11.797"/>
<polyline fill="none" stroke="#F0F0F0" stroke-width="2" stroke-miterlimit="10" points="14.397,65.716 31.865,48.248 
	50.081,66.464 80.712,35.833 109.962,65.084 120.774,54.272 132.801,66.3 176.164,22.937 216.756,63.528 "/>
<polyline fill="none" stroke="#F0F0F0" stroke-width="2" stroke-miterlimit="10" points="2.5,0 2.5,90 214.5,90 "/>
<g>
	<path fill="none" stroke="#F0F0F0" stroke-width="2" stroke-miterlimit="10" d="M494.06,203.411c3.145,0,5.241-2.097,5.241-5.241
		v-15.2c0-0.524,0-0.524,0-0.524c0-1.458,0.419-2.747,1.149-3.775h-11.632v3.775c0,0.524,0,0.524,0,0.524v15.2
		C488.819,201.315,490.916,203.411,494.06,203.411z"/>
	<path fill="none" stroke="#F0F0F0" stroke-width="2" stroke-miterlimit="10" d="M447.936,203.411c3.145,0,5.241-2.097,5.241-5.241
		v-19.499h-10.483v19.499C442.694,201.315,444.791,203.411,447.936,203.411z"/>
	<path fill="none" stroke="#F0F0F0" stroke-width="2" stroke-miterlimit="10" d="M470.998,203.935c3.145,0,5.241-2.097,5.241-5.241
		v-20.023h-10.483v20.023C465.757,201.839,467.853,203.935,470.998,203.935z"/>
	<path fill="none" stroke="#F0F0F0" stroke-width="2" stroke-miterlimit="10" d="M513.898,18.175H380.62h-4.544H242.794
		c-4.747,0-8.838,3.611-8.838,8.359v164.295v0.574v15.223v0.954c0,4.747,4.091,8.738,8.838,8.738h106.748l59.048,0.012h21.525
		v-37.659H246.126V29.768h264.2V178.37c0.98,1.147,1.555,2.609,1.555,4.075v33.884h2.023c4.747,0,8.595-3.988,8.595-8.738v-0.957
		v-15.22v-0.577V26.54C522.5,21.786,518.643,18.175,513.898,18.175z M378.227,191.779c3.098,0,5.607,2.509,5.607,5.61
		s-2.512,5.607-5.607,5.607c-3.101,0-5.607-2.506-5.607-5.607S375.128,191.779,378.227,191.779z"/>
</g>
</svg>
